<svg version="1.0" xmlns="http://www.w3.org/2000/svg" width="682.667" height="682.667" viewBox="0 0 512 512">
  <path d="M229 98.1c-16.4 1.6-37.2 8.2-41.8 13.3-2 2-2.8 4.4-9 24.5l-2.8 9.4-10.5 2.8c-20.1 5.3-36.9 12.6-48.6 21.3-5.5 4-6.7 5.5-10.4 13.3-3.5 7.3-4 9-2.9 10.6 1 1.7.6 2.7-2.5 7.2l-3.6 5.2-7 .7c-15.9 1.6-17 3.7-17.3 33.6l-.1 14.5 3.1 1.5c2.7 1.3 3.3 2.2 3.8 6 .3 2.5-.1 9.1-.9 14.5-2 13.4-3.5 38.4-3.5 57.7V350h-2.5c-3.6 0-7.1 1.9-8.4 4.7-.6 1.3-1.1 5.7-1.1 9.8 0 8.6 1.5 11 7.2 11.9 3 .5 36.2 2.6 40.7 2.6 1.5 0 2.2 1.4 3.5 7.1 2 8.9 4.3 14.1 8.9 20.1 4.2 5.4 4.5 5.2-9 6.4-4.6.3-8.3 1-8.3 1.3 0 .6 18.8 2.8 45 5.1 42.8 4 134.9 7.5 154 6 20.2-1.6 134.8-18 145-20.8 3.4-.9-6.2-1.9-19.1-2.1-5.3-.1-11.7-.4-14.2-.7l-4.5-.6 1.8-4.4c2.3-5.3 4-14.2 4-20.9 0-5.1.1-5.2 3.9-6.7 2.4-1 4.4-1.2 5.2-.7 2 1.3 19-.1 21.7-1.7 1.8-1.2 2.2-2.4 2.2-6.4 0-5.3-1.7-8-5.2-8-1.8 0-2-.4-1.4-3.3 3.1-15.4 4-25.5 3.9-45.7 0-11.8-.5-24.6-1-28.5-.9-6.1-.8-7.3.8-9.5 1.8-2.4 1.7-2.9-2.6-19.5-4.7-18.5-7.4-25.5-12.7-33.1-1.9-2.7-4.1-6.7-4.8-8.9-2-6.1-13.8-32.2-16.6-36.6-1.3-2.1-4.2-5-6.3-6.4-7.8-5.2-38.7-16.4-74.3-27l-8.7-2.6-6.5-8.8c-6.2-8.3-7.1-9-14.3-12.3-21.5-9.8-48.5-14.2-72.3-11.7zm46 5.3c21.3 4.9 31.5 10 38.2 19l4.6 6.3-9-2.3c-13.1-3.3-26.8-4.7-36.8-3.8l-8.5.8 11.2.7c14.8.9 26.6 3.5 56.3 12.4 47.2 14.2 70.4 22.9 76 28.5 4.5 4.5 21 40 18.6 40-.2 0-10.4-2.4-22.7-5.4-18-4.4-47.2-10.7-65.1-14.2-2.1-.4-3.1-1.7-4.8-6-2.9-7.1-7.8-13.3-12.9-16.4-2.3-1.4-4.3-3.2-4.6-4.1-.3-.8-3.4-6.7-7-12.9s-6.3-11.5-6.1-11.7c.5-.5 25 6.5 44.9 12.8 15 4.7 15.9 5.2 17.2 8.2.8 1.8 1.4 2.5 1.5 1.7.1-4.1-3.1-6-18.8-10.9-19.3-6.2-46.6-14-47-13.6-.2.1 2.9 6 6.9 13 3.9 6.9 6.9 12.8 6.7 13-.2.2-5.3-1.6-11.3-4-13.5-5.4-27.9-9.2-40.5-10.7-5.2-.6-10-1.6-10.6-2.2-.7-.6-2.1-4.1-3.3-7.8-1.2-3.6-2.8-6.9-3.5-7.1-8.2-3.2-45.1.5-51.5 5.1-1.3.9-3.2 4-4.2 6.9-1.9 4.9-2.1 5.1-6.2 5.5-2.3.3-4.3.4-4.4.3-.3-.2 6.4-22.3 8.2-27.1 1.3-3.4 2.6-4.7 7.3-7.2 6.5-3.5 17.9-6.9 29.7-8.8 12.6-2.1 38.4-1.1 51.5 2zm-33.7 25.5c1.9.7 2.9 2.3 4.1 6.3.8 2.9 1.4 5.3 1.3 5.4-.1.1-5.9 0-12.8-.3l-12.5-.6.9-5.8 1-5.9h7.8c4.3 0 8.9.4 10.2.9zm-20.8 5.3c-.4 2.9-.8 5.4-1 5.6-.1.1-2.5.5-5.4.9l-5.1.6v-3.4c0-6.1.9-7.8 4.4-8.2 8.2-1 7.9-1.3 7.1 4.5zm-13.1 1.5c-.3 2.7-.7 4.9-.8 5-.5.7-15.6 1.7-15.6 1.1 0-.5.6-2.4 1.4-4.2 1.4-3.3 3.3-4.4 10.1-5.9 5.4-1.2 5.7-1 4.9 4zm41.1 9.4c28.8 3.5 60.1 13.2 72.5 22.3 4.3 3.1 12 14.9 10.6 16.3-.3.3-10.3-1.1-22.3-3.1s-24.9-3.9-28.6-4.3c-5.7-.5-7-1-7.7-2.7-.4-1.2-.5-2.6-.3-3.3.2-.6-.5-2.2-1.5-3.5-1.1-1.2-3.9-4.7-6.1-7.5-4.6-5.9-8.8-8.4-17.8-10.7-8.6-2.3-10.2-1.9-2 .5 8.8 2.5 13.5 4.9 17.3 9.1 3.4 3.6 8.4 10.8 8.4 12.1 0 .4-6.9.6-15.2.3l-15.3-.4 12.5 1c6.9.5 12.9 1.3 13.4 1.8s1.6.5 2.7 0c1.4-.8 1.9-.5 2.4 1.1.4 1.1.5 2.2.3 2.4-.1.1-4.3-.1-9.3-.6-17.7-1.6-62.5-2.2-77-1-25.8 2.1-51.9 6.5-69.9 11.7-4.8 1.4-9 2.3-9.3 2.1-.2-.3.1-1.5.7-2.9 1.8-3.9 20.9-8.7 50.8-12.7 7.9-1.1 15-2.5 15.8-3.2 1.1-.9 1.8-.9 2.6-.1.7.7 3.5 1.1 6.3 1l5-.2-4.8-.3c-3.8-.3-5-.9-5.8-2.7l-1.1-2.3-2.7 2.7c-2.2 2.3-3.9 2.8-10.1 3.4-12.2 1.2-36.2 5.5-45.1 8.1-4.6 1.3-8.5 2.3-8.6 2.1-.9-.9 5.7-8.2 10.5-11.4 30.2-20.5 82.8-30.8 128.7-25.1zm10.5 35.7 5.5.7-.3 4c-.4 5-2.9 9.1-6.1 10.4-3.5 1.4-12.8 1.9-60.6 3.6-39.7 1.5-53.9 2.3-80.6 4.6-17 1.5-16.8 1.5-12.2-4.8 2.1-2.8 4.7-5.6 5.9-6.1 7.2-3.5 39.1-9.4 62.5-11.6 15-1.4 75.8-1.9 85.9-.8zm45.2 3.2c41.1 6.6 115 22.4 121.8 26 2.6 1.4 2.6 3.3 0 2.5-11.6-3.7-89-19.4-120.5-24.4-13.7-2.3-27.4-4.5-30.4-5.1-6.6-1.2-7.1-1.2-7.1-.1 0 1.4 6.5 2.7 34.5 7.1 14.3 2.2 26.8 4.3 27.7 4.6 2.3.7 4.7 11.1 10.2 45.1.3 1.9-.1 2.3-2.4 2.3-2.7 0-2.7-.1-3.3-7.8-.8-10.4-5.2-31.8-7.1-34.7-1.8-2.7-.8-2.5-29.2-7-24.8-3.9-26.7-4.1-28.3-2.1-.7.9-1.4 8.2-1.8 19.8-.8 24.6.1 26.6 13 28.4 3.7.5 4.7 1 4.3 2.1-.3.8-.6 1.9-.6 2.4s-1.8.9-4.1.9c-3.3 0-4-.3-3.5-1.6.4-1 .1-1.4-.6-1.2-.7.3-1.3 1.6-1.3 2.9 0 1.9.6 2.5 2.9 2.7 4.4.5 7-.5 10.4-3.9l3.1-3.2 8.8.7c16.5 1.2 33.2 2.9 34.2 3.5.5.3 1.2 1.8 1.6 3.3.6 2.2.4 2.6-1.2 2.3-1-.2-10.9-1.1-22.1-2.1l-20.2-1.7-9.8 2.3c-5.3 1.2-12.3 3-15.4 4l-5.8 1.7v-3.4c0-1.9.6-6.4 1.4-10.1.8-3.7 1.7-14.8 2-24.7.4-9.9.9-21.7 1.3-26.2l.6-8.2 4.1-.4c2.3-.2 5-.4 6.1-.5 1.1-.1 13.1 1.6 26.7 3.8zm-26.7 28.2v21.2l2.5.7c2.1.6 2.2.7.5.8-4.2.2-4.5-1.3-4.5-23.1 0-11.4.3-20.8.8-20.8.4 0 .7 9.5.7 21.2zm6.8-19.5c-.7.2-1.9.2-2.5 0-.7-.3-.2-.5 1.2-.5s1.9.2 1.3.5zm6.8 9.4c1.1 4.6 2.2 9.2 2.5 10.1.3 1 .1 1.8-.4 1.8-.8 0-5.2-17-5.2-20.1 0-2.9 1.2.4 3.1 8.2zm-28.3 14.4c-.4 11.5-1.3 23.2-1.8 25.8-.6 2.6-1 6.3-1 8.1 0 3.2-.2 3.4-9.2 7.1-11.8 4.7-49 23.8-62.2 31.7-21.6 13-32.4 23.4-39 37.6-1.6 3.4-3.2 6.2-3.5 6.2-.3 0-3-4.8-6-10.5-7-13.6-13.1-20.2-34.2-37.1-22.2-17.7-24.9-21.2-24.9-32 0-4 4.8-16.8 4.9-13 .1 1.7.7 1.8 7.4 1.3 22.9-2 27.7-2 29.6-.3 2 1.8 5.5 1.2 4.7-.9-.5-1.5 6.1-2.1 40.4-3.5 41.3-1.6 40.9-1.6 41.5-.3.6 1.8 6.4 1.6 7.1-.2.5-1.3 3.4-1.5 17.6-1.5 22.3 0 21.2 1 22.2-19.5l.7-14.9 3.2-2.7c1.8-1.5 3.2-2.6 3.3-2.6 0 .1-.3 9.6-.8 21.2zm90.7-17.5c7.2 1.5 16.2 3.3 20.2 4l7.2 1.2 1.2 5.5c.7 3.1 1.4 5.2 1.6 4.6.2-.6 0-2.9-.6-5.2-.5-2.2-.6-4.1-.2-4.1 3.5 0 38.7 8.3 39.3 9.3 1.5 2.3 7 18.3 9.4 27.2 2.4 9.1 3 13.5 1.7 13.5-2.2 0-39.8-5.2-40.2-5.6-.8-.7 4.5-.4 18.5 1.1 17.6 2 17.3 2.2 14.5-10-3.3-13.8-6.1-22.2-7.9-23.8-2.9-2.5-29.8-8.5-31.4-6.9-1.4 1.4 5.7 33.3 7.8 34.8 1.3 1 16.3 3.3 24.9 3.7 2.9.2 3 .1 2.8-3.8-.2-2.2-1.6-9.1-3.1-15.3-1.6-6.1-2.6-11.2-2.2-11.2 1.3 0 8.7 30.6 7.7 31.7-.6.5-28.8-2.4-31.9-3.3-1.8-.5-3-3.7-5.2-14.4-1.9-8.8-2-5.1-.1 4.6.8 4.2 2.1 8.6 2.8 9.8 1.4 2 1.3 2.1-3 1.7-3.6-.2-4.2-.5-3.2-1.7 3-3.6-3.8-41.1-6.8-38-.3.3-1.1-.1-1.7-.9-.6-.9-6.4-2.5-14-4-16.9-3.4-17.1-3.2-14.2 11.6.8 4.1 2.2 11.2 3.1 15.9.9 4.7 2.3 9.5 3.1 10.8l1.5 2.2-5.8-.6c-3.2-.4-6.2-1-6.6-1.4-.5-.4-2.1-8.3-3.7-17.6s-3.5-19.7-4.3-23.2l-1.4-6.2 3.6.6c2 .3 9.5 1.9 16.6 3.4zm-25.2 17.5c3.3 18 4 23.5 3 23.5-.4 0-2.1-7.8-3.7-17.3-3.8-23-3.9-23.5-2.8-21.7.5.8 2.1 7.8 3.5 15.5zm-156-5.6-.6 7 3.4.5c1.9.3 5.6.8 8.4 1.2 5.9.7 8.8 2.1 16.9 8.1 7.7 5.7 5.1 5-3.7-1-7.2-5-12.1-6.4-26.5-7.7-4.8-.4-7.1-.8-5.1-.9l3.6-.1.7-6.2c.8-6.6 1.2-7.8 2.6-7.8.5 0 .6 3.1.3 6.9zm178.2-4.7c-.7 3 5.2 31.9 6.8 33.6 1.4 1.4 20 4.1 23 3.4 2.3-.6 2.2-4-.8-19.2-2.7-13.4-2.9-15.3-1.6-13 1.6 2.9 5.2 23.7 4.9 28.6l-.3 4.9-5-.1c-9.4-.1-18.5-1.5-20.5-3.2-1.6-1.3-2.7-5.1-5-16.7-3.2-15.8-3.6-20.5-2-20.5.6 0 .8 1 .5 2.2zm-197.9.5c-.2 1-2.3 7.7-4.5 15-3.7 11.9-5.4 15.4-6.7 14.1-.7-.8 9.8-30.8 10.8-30.8.5 0 .7.8.4 1.7zm-6.1 1.3c.5.9-1.3 7.7-6.6 24.6-.9 3-1.2 3.2-8 3.8-4.3.5-6.7 1.1-6.3 1.7.3.6-2.1-1-5.4-3.6l-6-4.7 2.4-8.6c1.4-4.8 2.7-9.9 3.1-11.5l.6-2.7h12.8c7.6 0 13 .4 13.4 1zm-50.5.5c0 .3-1.8 3.9-4 7.9-2.2 4.1-5.4 10.9-7 15.2l-2.9 7.9-.1-7.1c0-7.5-1-9.4-4.7-9.4-2.6 0-2.9-1.5-1.3-7.2.6-2.1 2.1-4.3 3.3-5 2.9-1.6 16.7-3.5 16.7-2.3zm16 .7c0 .7-1.1 4.9-2.3 9.3l-2.3 8-4.3.3c-4.2.3-4.3.5-6.9 6.2-1.8 3.9-3.3 5.9-4.4 6-1 0-1.8-.2-1.8-.5 0-2 13.1-24.7 16.3-28.3 2.2-2.4 5.7-3 5.7-1zm-11.4 2.3c-3.6 5.5-8 13.3-11.3 20-1.9 3.8-3.2 5.6-2.8 4 .9-4.3 7.8-18.3 11.2-22.7 3.2-4.2 5.4-5.2 2.9-1.3zm330.6 3.6c3.3 1.7 8.8 16.6 13.2 35.7 1.3 5.7 1.3 6.3-.1 5.8-.8-.3-2.8-.6-4.4-.6-3.5 0-3.8-.7-6.8-13.5-1.1-5-3.8-13.6-5.9-19.2l-3.9-10.2 3.1.6c1.7.3 3.9 1 4.8 1.4zm-128.4 9.5.3 8h-4c-2.2-.1-4.2-.4-4.6-.7-.3-.4-1-3.5-1.5-7-1.1-7.8-.3-9.1 5.4-8.7l4.1.3.3 8.1zM171 227c0 6.5-.2 7-2.1 7-1.9 0-2.1-.4-1.5-3.8.3-2 .6-5.2.6-7 0-2.2.5-3.2 1.5-3.2 1.2 0 1.5 1.4 1.5 7zm39.3 4c2 1.4 3.7 2.8 3.7 3.2 0 .5-2.2-.8-5-2.8-2.7-2-5-3.8-5-4 0-.5.6-.2 6.3 3.6zm-103.8 2.1c-.6 3.5-.5 3.8 1.5 3.4 1.2-.2 2.9-1 3.6-1.6 1.1-.9 1.8-.9 2.6-.1 1.6 1.6-2 2.8-11 3.6l-7.3.6 2.2-4.2c1.2-2.4 2.1-4.4 2-4.6-.7-1.2.5-1.7 3.5-1.4 3.5.4 3.5.5 2.9 4.3zm-26.1 3.8c-.4 3.1-1.2 5.1-1.9 5.1-.8 0-1.6.6-1.8 1.2-.3.7-.6-1.5-.6-4.9-.1-5.6.1-6.2 2.2-6.5 1.2-.2 2.3-.3 2.5-.2.2.1 0 2.5-.4 5.3zm36.6-2.8 3.5 3.1-3.3-1.9c-3.5-1.9-6.1-4.3-4.6-4.3.5 0 2.5 1.4 4.4 3.1zm171.6 1.6c-1.1 4.5-1.1 4.6-1.4 1.4-.3-2.5 1-6.1 2.2-6.1.1 0-.2 2.1-.8 4.7zm52.4 11.4c0 1.9-.5 2.9-1.5 2.9-.8 0-1.5-.6-1.5-1.3 0-.6-.3-2.2-.6-3.4-.5-1.8-.3-2.1 1.5-1.6 1.5.4 2.1 1.3 2.1 3.4zm29.5-.1c10.5 1.2 19.7 2.5 20.5 2.9 1.9 1 2.6 5.1.9 5.1-1.8 0-40.3-3.9-45.6-4.6-4-.5-4.3-.7-4.3-3.6v-3.1l4.8.6c2.6.4 13.3 1.6 23.7 2.7zM79 248.7c0 1-.3 2.8-.6 4-.9 3.4-4.4 1.2-4.4-2.7 0-2.5.4-3 2.5-3 1.7 0 2.5.5 2.5 1.7zm240.3.9 17.7 1.8v26.9c0 17.5-.4 27.5-1.1 28.9-1 1.9-1.8 2-19.2 1.7l-18.1-.4-3.7 4.9c-2.7 3.5-4.4 7.4-5.8 13-4.5 17.5-6.3 23.2-8 25.6-1.7 2.3-2.4 2.5-12 2.8-9.1.2-10.1.1-10.2-1.5-.4-6.6.3-45.5 1.3-69.5l1.2-28.8 4.5-1.5c2.5-.8 8.8-2.4 14-3.5 5.2-1.1 9.7-2.3 10-2.6.7-.7 4.8-.4 29.4 2.2zm21.8 4.3c.1 1.4.2 1.4.6-.2.2-.9.8-1.7 1.1-1.7 4.9 0 50.8 5.2 51.3 5.7 2 2 3.1 18 3.4 46.3l.3 30.5 18.2-.4 18.1-.4-.3 3.4c-.2 2.4-.7 3.3-1.8 3-4.4-1.2-8.6-1.3-24.7-.6-19.8.8-20.4 1-22.5 8.9l-1.2 4.4-6.5.6c-3.6.3-13.2.8-21.3 1.2l-14.8.7-.2-4.9-.1-4.9-.6 5c-.4 3.2-1 4.9-1.8 4.8-.7-.2-1.3.2-1.3.7 0 .6.5 1 1 1 .6 0 1.1 1 1.1 2.2.2 2.2.2 2.2.6.2.4-2.3.1-2.3 31.6-4 10.6-.6 11.7-.5 11.1 1-.3.9-.2 1.6.4 1.6.9 0 1.3-.8 4.7-10.2.9-2.6 2.4-4.9 3.3-5.2.9-.3 10-1 20.1-1.6 16.9-.9 18.6-.8 20.4.7 1.5 1.4 1.7 2.6 1.2 6.2-.9 5.8-3.5 12.2-4.6 11.5-.5-.3-.9-3.4-.9-6.8 0-4.2-.5-6.7-1.4-7.5-1.3-1.1-17.8-.9-31.3.5l-5.3.5-2 6.9c-3.3 11-2.7 10.7-23 11.9-9.6.6-19.7 1.4-22.3 1.7-3.5.3-4.7.2-4.2-.7.5-.8.2-.8-1.1-.1-1.8.9-1.9.4-2-9.2-.2-15.2-5.1-33.4-10.6-39.3-2-2.1-3-2.3-12.4-2.3-10.1 0-10.2 0-12.8 3-2.4 2.9-5.7 12.4-12 34.4-4.2 14.5-4.9 15-20.9 14.4l-8.9-.3-1.4-4c-2.5-7.3-1.8-7.2-35.6-7.9-53.6-1.1-112.9-2.8-127.3-3.4l-14-.7-.3-9c-.2-7.9-.1-8.7 1.1-6.5.7 1.4 2.9 3.4 4.9 4.5 3.5 1.8 3.8 1.9 7.1.3 5.4-2.6 9-8 9.5-14.4 1.1-13.8-9.6-24-18.2-17.3-2.5 2-3.7 4.7-1.4 3.3.7-.4.8-.3.4.4-.4.6-1.4.8-2.2.5-1.2-.4-1.4-1.4-1-3.6.3-1.6.6-5.8.6-9.3V293h6.3c8.3 0 10.2-1.7 9.5-8.9l-.5-5 4.1 3.1c9.5 7.4 23.7 20.1 27.8 25 6.6 7.7 9.7 13.1 14.3 24.3 2.4 6 4.6 10 5.5 10 .8 0 2.9-3.7 5.1-8.8 6.7-15.7 14.9-25.1 31.4-36.1 6.9-4.6 34.7-20.6 35.7-20.6.2 0 .4 2.5.4 5.5-.1 7.9 1.2 8.9 12.7 9.3 10.2.3 13.2-.7 15.6-5 1.2-2.1 1.3-3.3.3-6.7-.7-2.2-2.1-4.5-3.1-5.1-1-.5-5.9-1.1-10.8-1.2l-9-.3 5.6-3.2c8.2-4.7 28.1-13.6 28.8-12.9.4.4.1 12.7-.5 27.4-1 23.2-1.5 47-1.3 67.4l.1 5.8h10.8c10 0 11-.2 12.9-2.3 2.4-2.5 5.2-10.7 8.3-24.2 2.3-10 4.8-15.1 8.3-16.5 1.2-.5 1.6-.9.8-.9-1.1-.1-1.1-.4-.1-1.6 1-1.2 4.5-1.5 19.6-1.5 17.1 0 18.4-.1 19.4-1.9.6-1.2 1-12.4 1-29.5 0-24.1.2-27.5 1.5-27 .8.4 1.6 1.4 1.6 2.3zm80.7 5.8c13.3 1.5 24.2 3.1 24.2 3.5 0 1.2-1.5 1.1-25.6-1.7-12-1.4-22.4-2.5-23.1-2.5-1.4 0-1.9-2-.5-2 .4 0 11.6 1.2 25 2.7zm-3.5 4.9c10.8 1.2 15.7 2.1 15.7 2.9 0 .7.3 2.6.6 4.2l.6 2.9-7.4-.3c-6.3-.2-6.7-.1-3.3.7 2.2.5 5.5.9 7.3.9 2.4.1 3.2.5 3.2 2 0 1 .3 3.9.6 6.5l.7 4.6-7.4.1c-6.6.1-7 .2-3.9 1.1 1.9.5 5.1.8 7.2.6 3.1-.3 3.8 0 3.8 1.4 0 1.6-1 1.8-7.1 1.8-4.4 0-6.8.4-6.4 1 .3.5 3.5 1 7.1 1 5.7 0 6.4.2 6.4 2s-.7 2-6.5 2c-3.7 0-6.5.4-6.5 1s2.9 1 6.7 1h6.6l-.6 15.1c-.3 8.3-.7 15.2-.9 15.4-.2.1-8.2.5-17.9.7l-17.6.6-.6-33.2c-.4-18.2-.9-34.3-1.3-35.8-.6-2.6-.5-2.8 2.2-2.3 1.6.2 10 1.2 18.7 2.1zm26.4 9.1c1.5 12.7.9 54.8-1 65.3-2.3 12.3-2.5 13-4.5 13-1 0-2.8.7-4.1 1.7-2.3 1.6-2.4 1.6-1.8-.8.3-1.3 1.4-9.4 2.3-17.9 1.3-12.1 1.5-20.9 1.1-40-.3-13.5-.8-25.3-1.2-26.3-.6-1.5-.1-1.7 3.8-1.7h4.5l.9 6.7zm-359.9-2.3c2.2 3.8 2 4.6-1.5 4.6-1.5 0-2.3-.6-2.3-1.8 0-1.9 1.1-6.2 1.5-6.2.2 0 1.2 1.5 2.3 3.4zm147.2 3.3c-4.6.2-9 .9-9.7 1.5-1.3 1.1-1.9-.3-.6-1.5.3-.4 4.7-.6 9.7-.5l9.1.2-8.5.3zm12 2.2c.5 1.1.9 3.7.9 5.8-.2 3.6-.2 3.6-.8-1-.4-2.7-1.4-5.3-2.2-5.8-.9-.5-1-.9-.2-.9.7 0 1.7.9 2.3 1.9zm-2.7.7c-.7.3-1.3 1-1.3 1.5 0 .6.4.8.9.5 1-.6 2.1 1.6 2.1 4.3 0 1.3-.7 1.6-3.3 1.3-2.9-.3-3.3-.7-2.9-2.7.2-1.2-.1-2.6-.7-2.9-2.1-1.3-1.1-2.2 2.7-2.3 2-.1 3.1 0 2.5.3zm-149.6 2.9c.1 1.6.1 1.6-.3.2-.4-1.3-1.6-1.7-4.9-1.7-3.7 0-4.4.3-4.8 2.2-.4 1.9-.4 1.9-.6-.5-.1-2.8 0-2.8 5.1-2.5 4.4.3 5.3.6 5.5 2.3zm144.1 1.4c.3 1.7-.2 2.1-2.5 2.2-1.5 0-4.3.1-6.1.2-2.7.2-3.2-.1-3.2-2.1s.5-2.3 2.8-2c2.1.2 2.6.8 2.4 2.3-.2 1.6-.1 1.7.7.5.6-.8 1.1-2.3 1.1-3.2 0-2.6 4.4-.7 4.8 2.1zm-13.2 5.3c.5.8.1.5-.8-.5-1-1.1-1.7-3.3-1.7-5.1.1-3.1.1-3.1.8.6.4 2 1.2 4.3 1.7 5zm-131.4 2.2c.6-.4.9-.3.5.2-.3.5-2.5.8-4.9.6-4.3-.4-4.4-.5-4-3.3.4-2.4.9-2.9 3.3-2.9 1.6 0 3-.6 3.1-1.3.1-.6.3.7.5 3.1.3 2.7.8 4 1.5 3.6zm1.5-2.7c-.3 1-.5.4-.5-1.2 0-1.7.2-2.4.5-1.8.2.7.2 2.1 0 3zm-12 2.5c-.2 1.3-.4.5-.4-1.7-.1-2.2.1-3.2.4-2.3.2 1 .2 2.8 0 4zm7.1 2.5c-1 .2-2.8.2-4 0-1.3-.2-.5-.4 1.7-.4 2.2-.1 3.2.1 2.3.4zm1.9 16.9c-.3.3-1.2.4-1.9.1-.8-.3-.5-.6.6-.6 1.1-.1 1.7.2 1.3.5zm6.3 4.5c1.5 2.8.5 2.3-1.5-.7-.9-1.5-1.2-2.3-.6-2 .6.4 1.6 1.6 2.1 2.7zm-5.1-.7c2.6 1.4 3 2.5 3.8 9.2.6 5.2-1.8 11-5.1 12.5-2 1-3 .9-5.3-.5l-2.8-1.7 2.8 2.5c1.5 1.4 2.4 2.6 1.9 2.6-1.9 0-5.1-4.1-4.5-5.7.4-.9.2-1.4-.3-1.1-.5.4-1-.8-1.1-2.5l-.2-3.2 1.4 3.2c3 6.9 9.3 6.1 11.6-1.6 1.4-4.8-.2-10.4-3.5-12.7-3.2-2-5.5-.8-7.8 4-1.6 3.5-1.8 3.7-1.3 1.1.6-3.1 4.7-7.5 6.8-7.5.7.1 2.3.7 3.6 1.4zm-.6 3.7c1.6 2.6.1 4.9-3.3 4.9-2.7 0-3-.3-3-2.9 0-4.1 4.1-5.4 6.3-2zm7.8 12.1c-1.1 3.6-6.1 8.8-8.4 8.8-.7 0 .2-.9 1.9-1.9 3.7-2.2 6.3-7.5 6.5-12.8.2-3.3.3-3.4.6-.8.3 1.6 0 4.6-.6 6.7zm209.2-1.8c4.9 2 11.2 9.8 14.7 18.2 3.3 8.1 6.8 26.1 5.5 29-.5 1.3-1.2-.9-2.1-7-1.7-11.3-6.2-21.3-12-26.6-4.6-4.3-9.1-5.6-15.4-4.6-4.3.7-4.6.3-2.9-4.1 2.3-6.2 5.8-7.6 12.2-4.9zm1.7 20.1c9.2 4.8 14 22.1 11 40.2-1.4 9.1-3.3 14.5-6.7 19.1-5.5 7.4-12.7 7.9-19.3 1.1-13.2-13.6-10.5-50.9 4.3-60 3.8-2.3 6.8-2.4 10.7-.4zm113.6 4.2c-2.5 14.6-2.3 14.1-6.9 14.7-2.3.3-10.3 1.4-17.7 2.4-7.4 1.1-13.7 1.8-13.9 1.6-.5-.4 5.1-18.6 6.2-20.1 1-1.4 5.5-1.9 21.1-2.1l11.8-.2-.6 3.7zM127 355c17.9.5 51.6 1.2 75 1.6 23.4.3 44 1 45.7 1.6 3.2.9 6.3 4.1 6.3 6.4 0 .6-1.5 1.4-3.2 1.7-5 .8-91.1-1.4-92.3-2.4-.6-.4-18.8-1-40.5-1.3-41.3-.6-53-1.2-53-2.8 0-1.4 2.1-5.2 3.4-6 .6-.4 6.7-.5 13.6-.3 6.9.3 27.1 1 45 1.5zm320.4-.4c1.1.4 1.6 1.9 1.6 4.9 0 2.4-.4 4.6-.8 4.9-.4.2-3.5.8-6.9 1.1l-6.1.7.5-4.8c.3-2.7 1-5.5 1.6-6.2 1-1.2 7.4-1.7 10.1-.6zm-336.1 11 10.7.6v10.7l-5.2-.5c-2.9-.2-14.7-.9-26.2-1.5s-21.7-1.6-22.7-2.2c-1.8-1.1-2.9-3.7-2.9-7.1 0-1.8.8-1.8 17.8-1.2 9.7.3 22.5.9 28.5 1.2zm43.5-.1c.8.3 1.2 2.5 1.2 6.5v6h-6.8c-3.8 0-11-.3-16-.6l-9.2-.7v-12.3l14.8.4c8.1.2 15.3.5 16 .7zm227.2 2.4c0 .6-.5 1.3-1.1 1.7-1.1.6-50.1 4.5-50.6 4-.2-.1.3-1 1-1.9 1-1.3 4.7-1.8 19.7-2.7 10.2-.6 19-1.3 19.5-1.5 2.2-.8 11.5-.4 11.5.4zm-162.3 2.3c2.3 1.9 1 5.2-2.7 7-3 1.5-6.4 1.8-23 1.8-10.7 0-23.2-.3-27.7-.7l-8.3-.6v-10l30.2.7c20 .4 30.6 1 31.5 1.8zm62.6.9c1.2 1.8.4 5.5-1.7 8.4-1.3 1.8-2.8 2-16.3 2.3-13.7.2-14.6.1-12.1-1.3 3.2-1.8 4.8-4.4 4.8-7.9 0-2.5.2-2.5 8.8-2.9 13.3-.5 15.4-.3 16.5 1.4zm130.2 17.5c-.8 2.9-2.6 6.6-3.9 8.1-2.1 2.4-2.6 2.6-5 1.5-4.8-2.1-8-9.3-9-20.2-.6-5.5-.6-5.5.9 1.3 2.3 11.1 7.4 17.8 11.6 15.2 2.3-1.5 5-9.7 5.7-17.7l.7-8.3.3 7.3c.2 4.6-.3 9.4-1.3 12.8zm-13.1-16.2c-.9 2.3 1.3 2.8 4.1 1 2.5-1.6 2.5-1.6 2.5 1.5 0 4.3-2.5 10.1-4.4 10.1-.8 0-2-.9-2.6-1.9-1.1-2.2-1.4-10.4-.3-11.4 1-1.1 1.3-.8.7.7zm11.3 5.3c-.3 1-.5.2-.5-1.7s.2-2.7.5-1.8c.2 1 .2 2.6 0 3.5zm-257 2.9c13.6.5 21 1.1 20.6 1.7-.6 1-42.9.2-52.5-1-8.1-1-5.6-2.7 3-2 4.2.4 17.2.9 28.9 1.3zm221.1 5.1c.7 3.6 2.3 8.9 3.7 11.6l2.4 5-15.7-.6c-8.6-.4-22.2-.7-30.1-.7-13.2 0-14.3-.1-13.6-1.8.5-.9 1.5-4.9 2.3-8.7.9-3.9 1.7-7.2 1.9-7.4.5-.7 33.7-3.8 41.3-4l6.5-.1 1.3 6.7zm34.8-1.4c-.7 3.5-3.9 7.7-5.9 7.7-.7 0-.4-.5.6-1.1 2.2-1.3 4.7-6.1 4.7-9 0-1.2.3-2 .6-1.6.4.3.4 2.1 0 4zm-158.2-1.4c2.6.5 3.2 1.4 4.6 6.1.9 3.1 2.2 6.5 2.8 7.5 1 1.9.6 2.1-5.6 3.1-4.2.6-6.6 1.5-6.4 2.2.1.7-.8 1.2-2 1.2-2.7 0-43.8 3.5-57.8 4.9-5.2.6-13.3 1.3-17.9 1.7l-8.5.6 3.2-4c3.8-4.7 7.8-13.2 8.7-18.2.4-2.3 1.5-4 2.8-4.7 2.4-1.1 70.9-1.6 76.1-.4zm-106.8 11.3c1.1.9 3.2 2.2 4.8 2.8 3.8 1.4 9.2-1.2 12.3-5.9 3-4.4 3.1-1.2.2 3.6-2.1 3.4-6.4 6.3-9.4 6.3-3.3 0-7.7-3.3-10.6-7.8-1.6-2.5-2.9-5.1-2.9-5.6 0-.6.8.2 1.9 1.9 1 1.6 2.7 3.8 3.7 4.7z"/>
  <path d="M371.1 157.7c.2 2.4.2 2.5.6.5.2-1.2.5-2.2.7-2.2.1 0 4.2 1.3 9.1 3 4.9 1.6 9 2.8 9.2 2.6.4-.4-17.5-6.6-19-6.6-.4 0-.6 1.2-.6 2.7zM366.2 161c0 1.4.2 1.9.5 1.2.2-.6.2-1.8 0-2.5-.3-.6-.5-.1-.5 1.3zM372.1 162.6c0 1.1.3 1.4.6.6.3-.7.2-1.6-.1-1.9-.3-.4-.6.2-.5 1.3zM393 162.8c.8.5 2.6 1.3 4 1.6 1.7.5 2 .4 1-.2-.8-.5-2.6-1.3-4-1.6-1.7-.5-2-.4-1 .2zM367.2 166c0 1.4.2 1.9.5 1.2.2-.6.2-1.8 0-2.5-.3-.6-.5-.1-.5 1.3zM401.1 166.7c.7 1.2 1.5 2 1.8 1.7.3-.2-.3-1.2-1.3-2.2-1.7-1.6-1.8-1.6-.5.5zM374.1 169c0 .8.4 2.4.9 3.5.5 1.3.9 1.4.9.5 0-.8-.4-2.4-.9-3.5-.5-1.3-.9-1.4-.9-.5zM368.2 171c0 1.4.2 1.9.5 1.2.2-.6.2-1.8 0-2.5-.3-.6-.5-.1-.5 1.3zM403.1 170.5c0 .5.8 3.7 1.9 7 1.1 3.3 1.7 4.4 1.3 2.5-.6-3.8-3.1-11.1-3.2-9.5zM369.2 177.3c-.1 2.2-.8 4-1.6 4.3-.8.3-6.7-.6-13.2-2.1-6.4-1.4-11.8-2.4-12.1-2.2-.4.4 2.3 1.1 19 4.8 7.1 1.5 9.1.3 8.4-5.2l-.4-3.4-.1 3.8zM338.7 176.1c.7.7 1.5 1 1.8.7.3-.3-.2-.9-1.2-1.2-1.4-.6-1.5-.5-.6.5zM377.2 179c.2.8 3.3 2.5 6.9 3.7 13.4 4.5 23.9 7.6 24.4 7.2.2-.3 0-1.8-.4-3.5-.9-2.9-.9-2.9-1-.3l-.1 2.6-13.2-4c-7.3-2.1-14.2-4.7-15.2-5.6-1.6-1.3-1.8-1.3-1.4-.1zM228.8 145.7c.7.3 1.6.2 1.9-.1.4-.3-.2-.6-1.3-.5-1.1 0-1.4.3-.6.6zM234.8 146.7c.6.2 1.8.2 2.5 0 .6-.3.1-.5-1.3-.5-1.4 0-1.9.2-1.2.5zM202.3 169.7c7.1.2 18.3.2 25 0 6.7-.1 1-.3-12.8-.3-13.7 0-19.2.2-12.2.3zM141 271.8c-1.9 1-5 4-6.7 6.6-2.9 4.2-3.3 5.7-3.3 11 .1 18.5 15.4 26.1 26.7 13.2 4.2-4.7 6.7-12.6 5.9-18.4-1.5-11.1-13-17.4-22.6-12.4zm16.1 5.3c1.6 1.9 2.7 4 2.4 4.7-.3.7 0 1 .5.7.6-.4 1 1.1 1 3.8 0 5.9-5.1 16.2-9 18.2-4 2.1-9.3 1.9-11.3-.3-2.5-2.7-4.7-9.9-4.6-15.1v-4.6l1.8 5.5 1.7 5.5 1.8-5c2.6-7.1 5-9.9 7.4-8.6 1.3.7 2.2.7 3-.1 2.1-2.1 2.3-.1.4 4.7-1.4 3.6-2 4.3-2.5 3.1-1.1-2.8-2.7-1.4-5.3 4.4-2.7 6.3-3.3 12.4-1 10 .7-.8 2.2-4 3.2-7l1.8-5.5.7 4.7c.4 2.5 1.1 5.4 1.7 6.3.8 1.5 1.2 1.3 3.6-1.7 1.4-1.9 2.6-3.9 2.6-4.4 0-.4-.8.2-1.7 1.5l-1.6 2.4-.9-2.2c-.5-1.4-.3-3.2.6-4.9 2.7-5.4 4.7-12.4 3.7-13.6-.6-.7-3.4-1-7.5-.8l-6.6.4-1.7 4.9-1.8 4.9-1.6-4.7c-1.8-5.4-1.5-6.3 3.6-9.5 2.2-1.4 4.3-1.8 7.9-1.5 4 .4 5.3 1 7.7 3.8zm-21.8 5.4c-.3.9-.8 1.4-1 1.1-.3-.3-.2-.9.2-1.5.9-1.6 1.5-1.3.8.4zm-1.6 10.2c-.2 1.6-.4.3-.4-2.7s.2-4.3.4-2.8c.2 1.6.2 4 0 5.5z"/>
  <path d="M158.8 288c-.3 1.9-.9 4.4-1.2 5.5-.4 1.1.1.5.9-1.4.9-1.8 1.5-4.3 1.3-5.5-.3-1.5-.5-1.1-1 1.4zM384.2 218c0 1.4.2 1.9.5 1.2.2-.6.2-1.8 0-2.5-.3-.6-.5-.1-.5 1.3zM385.2 223c0 1.4.2 1.9.5 1.2.2-.6.2-1.8 0-2.5-.3-.6-.5-.1-.5 1.3zM321.8 273.2c-1 1-1.8 2.4-1.8 3.2 0 2 4.9 7.6 6.5 7.6 2.6 0 6.3-2.2 7.6-4.6 1.1-2.1 1-2.7-1-4.8-3-3.2-8.8-3.9-11.3-1.4zm8.2 2.8c2 .7 1.6.8-2.2.9-2.7.1-4.8-.4-4.8-.9 0-1.2 3.4-1.2 7 0zm-1 4.9c0 1.5-1.6 2.2-3.4 1.5-2.5-.9-1.9-2.4.9-2.4 1.4 0 2.5.4 2.5.9zM267.7 341.7c-.9.8-.9 5.6-.1 7.7.6 1.6 5 2.2 7 .8 1.8-1.2 2.6-5 1.4-7.2-.7-1.4-2.1-2-4.4-2-1.8 0-3.6.3-3.9.7zm6.8 1.3c.4.6-.8 1-3 1s-3.4-.4-3-1c.3-.6 1.7-1 3-1s2.7.4 3 1zM344.7 275.8l-2.5 2.7 2.7 3.2c3.1 3.7 5 4.1 8.6 1.7 4.5-2.9 2.5-8.3-3.6-9.7-2-.5-3.2 0-5.2 2.1zm7.6 1.9c-1.3.2-3.5.2-5 0-1.6-.2-.5-.4 2.2-.4 2.8 0 4 .2 2.8.4zm0 4.8c.4 1.7-4 1.7-4.7 0-.5-1.3 0-1.6 1.9-1.3 1.4.2 2.7.7 2.8 1.3zM214.3 302.9c-7.4 3.4-11.5 12.8-9.3 21 3.1 11.6 16.5 17.2 25.9 10.7 14-9.7 9.1-31.5-7.5-33.2-3.6-.3-6 .1-9.1 1.5zm11.6 2.9c9.2 4.7 9.3 19.9.2 24.7-5.7 2.9-10.6 1.3-13.7-4.7-1.1-2.2-1.3-3.3-.5-4.1.8-.8 1.1-.6 1.1.7 0 2.2 6.2 8.6 8.3 8.6 2.1 0 7.7-4.8 7.7-6.6 0-.9.4-1.3.9-1 2.3 1.5 2.8-7.1.7-11.2-2.1-4-4.7-6-9.2-7.1-2.8-.6-3.2-.9-1.4-1 1.4-.1 4 .7 5.9 1.7zm-10.4.3c-1.1.6-3.1 2.3-4.3 3.8-2 2.2-2.2 2.2-1.3.4 1.2-2.4 4.9-5.3 6.6-5.3.5 0 .1.5-1 1.1zm20.1 6.6c1.9 4.4 1.7 8-.5 12.9-1.9 4.2-8 9-10.4 8.1-.7-.3-.5-.6.5-.6 3-.2 8.7-6 9.8-10.1 1.3-4.9 0-11.3-3.2-14.8l-2.3-2.7 2.4 2c1.3 1.1 3 3.4 3.7 5.2zm-16.1-4.4c-1.1.7-2.2 2.1-2.3 3.2-.5 2.5-2.2 4.5-2.2 2.4 0-.8.3-1.9.8-2.5.4-.5 0-.2-.8.7-.8.9-2 2.5-2.6 3.5-1 1.7-1.1 1.5-.7-.9.6-3 5.5-7.7 8.1-7.7 1.4.1 1.4.3-.3 1.3zm7.2 1.2c2.4 1.7 3.5 5.9 2 7.4-1.6 1.6-5.8 1.3-7.9-.6-2.3-2.1-2.3-5.9 0-7.2 2.3-1.4 3.4-1.3 5.9.4zm4 10.7c-.3.8-.6.5-.6-.6-.1-1.1.2-1.7.5-1.3.3.3.4 1.2.1 1.9zm-17 10.4c2.4 2.3 2.5 2.5.5 1.5-2.5-1.4-6.2-6.8-6.2-9.1.1-.8.7 0 1.5 1.8.8 1.7 2.7 4.4 4.2 5.8zM341.4 320.5c0 11 .2 15.6.3 10.3.2-5.3.2-14.3 0-20-.1-5.7-.3-1.3-.3 9.7zM249.5 337c-1.2 1.9.6 6.9 2.6 7.5 1.1.4 2.3.4 2.6.1.4-.3-.1-.6-1-.6-2.4 0-4-3.5-2.7-6 1.1-2.1-.3-2.9-1.5-1zM96.7 347.7c-.4.6.5 1.3 2.1 1.6 4.4.9 109.1 3.1 109.9 2.3.4-.4.2-1.1-.5-1.5-.7-.4-19.8-1.1-42.5-1.5-22.7-.3-47.3-.9-54.8-1.3-8.9-.4-13.8-.2-14.2.4zM418.3 284.5c0 3.8.2 5.3.4 3.2.2-2 .2-5.2 0-7-.2-1.7-.4-.1-.4 3.8zM422 279c0 .6 2.7 1 6.2 1 7.4 0 7.3-.5-.4-1.4-3.7-.4-5.8-.2-5.8.4zM422 283.9c0 1 11 2.1 12.5 1.2.6-.3-.3-.9-2-1.2-4.6-1-10.5-1-10.5 0zM300.4 348.9c-3.7 1.6-8.2 8.1-10.4 15.2-1.9 5.9-2.2 8.5-1.8 18.3.4 9.7.8 12.1 2.9 16.2 6.4 12.4 16.9 12.4 23-.1 3.8-7.8 5.3-16.1 4.6-26-.7-10.3-2.3-14.8-6.6-19.6-3.8-4.1-8-5.5-11.7-4zm5.2 12.6c8.6 8.7 6.5 28.8-3.5 32.7-2 .7-2.9.4-5.3-1.9-1.5-1.4-2.8-3-2.8-3.5s1.4.6 3.1 2.4l3.1 3.3-2-3c-4.8-7.4-5.5-16.4-1.9-23.5 1.9-3.9 2.6-4.5 5.4-4.5 2.5 0 2.9-.3 2.1-1.3-2.1-2.5-6.1-.9-8.5 3.3-2.3 4.1-3.2 4.2-1.2.2 1.9-3.6 5.1-6.7 7.1-6.7 1 0 3 1.1 4.4 2.5zm-12.9 11.7c-.3.7-.5.2-.5-1.2s.2-1.9.5-1.3c.2.7.2 1.9 0 2.5zm21 8.5c-.2 1.6-.4.3-.4-2.7s.2-4.3.4-2.8c.2 1.6.2 4 0 5.5zm-21 1c-.3 1-.5.4-.5-1.2 0-1.7.2-2.4.5-1.8.2.7.2 2.1 0 3zm19.3 7c-1.1 1.7-1.1 1.7-.6 0 .3-1 .6-2.4.7-3 0-.9.2-.9.5 0 .3.7 0 2-.6 3zm-1.9 5.1c-2 3.7-7.1 7.2-10.5 7.2-2.3 0-4-.9-6.2-3.2l-2.9-3.2 3.3 2.7c1.9 1.5 4.6 2.7 6.2 2.7 3.2 0 8.5-4 9.5-7.1.4-1.1.9-1.8 1.2-1.6.2.3 0 1.4-.6 2.5z"/>
</svg>