<svg aria-hidden="true" style="position:absolute;width:0;height:0;overflow:hidden" xmlns="http://www.w3.org/2000/svg">
  <defs>
    <symbol id="icon-logo" viewBox="0 0 32 32">
      <path d="M13.814 3.218c-1.328.13-3.011.664-3.384 1.077-.162.162-.227.356-.729 1.983l-.227.761-.85.227c-1.627.429-2.987 1.02-3.934 1.724-.445.324-.542.445-.842 1.077-.283.591-.324.729-.235.858.081.138.048.219-.202.583l-.292.421-.567.057c-1.287.13-1.376.3-1.4 2.72l-.008 1.174.251.121c.219.105.267.178.307.486.024.202-.008.737-.073 1.174-.162 1.085-.283 3.108-.283 4.671v1.279h-.202c-.292 0-.575.154-.68.38-.048.105-.089.461-.089.793 0 .696.121.891.583.963.243.04 2.93.211 3.295.211.121 0 .178.113.283.575.162.72.348 1.141.72 1.627.34.437.364.421-.729.518-.372.024-.672.081-.672.105 0 .048 1.522.227 3.643.413 3.465.324 10.92.607 12.466.486 1.635-.13 10.912-1.457 11.738-1.684.275-.073-.502-.154-1.546-.17a15.922 15.922 0 0 1-1.15-.057l-.364-.048.146-.356c.186-.429.324-1.15.324-1.692 0-.413.008-.421.316-.542.194-.081.356-.097.421-.057.162.105 1.538-.008 1.757-.138.146-.097.178-.194.178-.518 0-.429-.138-.648-.421-.648-.146 0-.162-.033-.113-.267.251-1.247.324-2.064.316-3.7 0-.955-.04-1.991-.081-2.307-.073-.494-.065-.591.065-.769.146-.194.138-.235-.211-1.578-.38-1.498-.599-2.064-1.028-2.679-.154-.219-.332-.542-.389-.72-.162-.494-1.117-2.607-1.344-2.963a2.057 2.057 0 0 0-.51-.518c-.632-.421-3.133-1.328-6.015-2.186l-.704-.211-.526-.712c-.502-.672-.575-.729-1.158-.996-1.74-.793-3.926-1.15-5.852-.947zm3.724.429c1.724.397 2.55.81 3.092 1.538l.372.51-.729-.186c-1.06-.267-2.17-.38-2.979-.307l-.688.065.907.057c1.198.073 2.153.283 4.558 1.004 3.821 1.15 5.699 1.854 6.152 2.307.364.364 1.7 3.238 1.506 3.238-.016 0-.842-.194-1.838-.437a141.308 141.308 0 0 0-5.27-1.15c-.17-.033-.251-.138-.389-.486-.235-.575-.632-1.077-1.044-1.328-.186-.113-.348-.259-.372-.332-.024-.065-.275-.542-.567-1.044s-.51-.931-.494-.947c.04-.04 2.024.526 3.635 1.036 1.214.38 1.287.421 1.392.664.065.146.113.202.121.138.008-.332-.251-.486-1.522-.882-1.562-.502-3.772-1.133-3.805-1.101-.016.008.235.486.559 1.052.316.559.559 1.036.542 1.052s-.429-.13-.915-.324c-1.093-.437-2.258-.745-3.278-.866-.421-.048-.81-.13-.858-.178-.057-.048-.17-.332-.267-.632-.097-.292-.227-.559-.283-.575-.664-.259-3.651.04-4.169.413-.105.073-.259.324-.34.559-.154.397-.17.413-.502.445-.186.024-.348.033-.356.024-.024-.016.518-1.805.664-2.194.105-.275.211-.38.591-.583.526-.283 1.449-.559 2.404-.712 1.02-.17 3.108-.089 4.169.162zM14.81 5.711c.154.057.235.186.332.51.065.235.113.429.105.437s-.478 0-1.036-.024l-1.012-.048.073-.47.081-.478h.632c.348 0 .72.033.826.073zm-1.684.429c-.033.235-.065.437-.081.453-.008.008-.202.04-.437.073l-.413.048v-.275c0-.494.073-.632.356-.664.664-.081.639-.105.575.364zm-1.06.122a2.711 2.711 0 0 1-.065.405c-.04.057-1.263.138-1.263.089 0-.04.048-.194.113-.34.113-.267.267-.356.818-.478.437-.097.461-.081.397.324zm3.327.761c2.331.283 4.865 1.069 5.869 1.805.348.251.971 1.206.858 1.319-.024.024-.834-.089-1.805-.251S18.299 9.58 18 9.548c-.461-.04-.567-.081-.623-.219a.531.531 0 0 1-.024-.267c.016-.048-.04-.178-.121-.283-.089-.097-.316-.38-.494-.607-.372-.478-.712-.68-1.441-.866-.696-.186-.826-.154-.162.04.712.202 1.093.397 1.4.737.275.292.68.874.68.979 0 .033-.559.048-1.231.024l-1.238-.033 1.012.081c.559.04 1.044.105 1.085.146s.13.04.219 0c.113-.065.154-.04.194.089.033.089.04.178.024.194a7.066 7.066 0 0 1-.753-.048c-1.433-.13-5.059-.178-6.233-.081-2.089.17-4.201.526-5.658.947-.388.113-.728.186-.753.17-.016-.024.008-.121.057-.235.146-.316 1.692-.704 4.112-1.028.639-.089 1.214-.202 1.279-.259.089-.073.146-.073.211-.008.057.057.283.089.51.081l.405-.016-.389-.024c-.307-.024-.405-.073-.47-.219l-.089-.186-.219.219c-.178.186-.316.227-.818.275-.987.097-2.93.445-3.651.656-.372.105-.688.186-.696.17-.073-.073.461-.664.85-.923 2.445-1.659 6.703-2.493 10.418-2.032zm.85 2.89.445.057-.024.324c-.033.405-.235.737-.494.842-.283.113-1.036.154-4.906.292-3.214.121-4.363.186-6.524.372-1.376.121-1.36.121-.987-.389.17-.227.38-.453.478-.494.583-.283 3.165-.761 5.059-.939 1.214-.113 6.136-.154 6.954-.065zm3.659.259c3.327.534 9.309 1.813 9.86 2.105.211.113.211.267 0 .202-.939-.3-7.204-1.571-9.754-1.975-1.109-.186-2.218-.364-2.461-.413-.534-.097-.575-.097-.575-.008 0 .113.526.219 2.793.575 1.158.178 2.17.348 2.242.372.186.057.38.899.826 3.651.024.154-.008.186-.194.186-.219 0-.219-.008-.267-.632-.065-.842-.421-2.574-.575-2.809-.146-.219-.065-.202-2.364-.567-2.008-.316-2.161-.332-2.291-.17-.057.073-.113.664-.146 1.603-.065 1.991.008 2.153 1.052 2.299.3.04.38.081.348.17-.024.065-.048.154-.048.194s-.146.073-.332.073c-.267 0-.324-.024-.283-.13.033-.081.008-.113-.048-.097-.057.024-.105.13-.105.235 0 .154.048.202.235.219.356.04.567-.04.842-.316l.251-.259.712.057c1.336.097 2.688.235 2.769.283.04.024.097.146.13.267.048.178.033.211-.097.186a70.574 70.574 0 0 0-1.789-.17l-1.635-.138-.793.186c-.429.097-.996.243-1.247.324l-.47.138v-.275c0-.154.048-.518.113-.818s.138-1.198.162-1.999c.033-.801.073-1.757.105-2.121l.048-.664.332-.033.494-.04c.089-.007 1.06.13 2.161.307zm-2.162 2.282v1.716l.202.057c.17.048.178.057.04.065-.34.016-.364-.105-.364-1.87 0-.923.024-1.684.065-1.684.033 0 .057.769.057 1.716zm.551-1.578a.43.43 0 0 1-.202 0c-.057-.024-.016-.04.097-.04s.154.016.105.04zm.55.761c.089.372.178.745.202.818.024.081.008.146-.033.146-.065 0-.421-1.376-.421-1.627 0-.235.097.033.251.664zm-2.29 1.166c-.033.931-.105 1.878-.146 2.089-.048.211-.081.51-.081.656 0 .259-.016.275-.745.575-.955.38-3.967 1.927-5.035 2.566-1.749 1.052-2.623 1.894-3.157 3.044-.13.275-.259.502-.283.502s-.243-.389-.486-.85c-.567-1.101-1.06-1.635-2.769-3.003-1.797-1.433-2.016-1.716-2.016-2.59 0-.324.389-1.36.397-1.052.008.138.057.146.599.105 1.854-.162 2.242-.162 2.396-.024.162.146.445.097.38-.073-.04-.121.494-.17 3.27-.283 3.343-.13 3.311-.13 3.36-.024.048.146.518.13.575-.016.04-.105.275-.121 1.425-.121 1.805 0 1.716.081 1.797-1.578l.057-1.206.259-.219a3.45 3.45 0 0 1 .267-.211c0 .008-.024.777-.065 1.716zm7.342-1.417c.583.121 1.311.267 1.635.324l.583.097.097.445c.057.251.113.421.13.372s0-.235-.048-.421c-.04-.178-.048-.332-.016-.332.283 0 3.133.672 3.181.753.121.186.567 1.481.761 2.202.194.737.243 1.093.138 1.093-.178 0-3.222-.421-3.254-.453-.065-.057.364-.033 1.498.089 1.425.162 1.4.178 1.174-.81-.267-1.117-.494-1.797-.639-1.927-.235-.202-2.412-.688-2.542-.559-.113.113.461 2.696.632 2.817.105.081 1.319.267 2.016.3.235.016.243.008.227-.307-.016-.178-.13-.737-.251-1.238-.13-.494-.211-.906-.178-.906.105 0 .704 2.477.623 2.566-.048.04-2.331-.194-2.582-.267-.146-.04-.243-.3-.421-1.166-.154-.712-.162-.413-.008.372.065.34.17.696.227.793.113.162.105.17-.243.138-.292-.016-.34-.04-.259-.138.243-.292-.307-3.327-.551-3.076-.024.024-.089-.008-.138-.073-.048-.073-.518-.202-1.133-.324-1.368-.275-1.384-.259-1.15.939.065.332.178.906.251 1.287s.186.769.251.874l.121.178-.47-.048c-.259-.033-.502-.081-.534-.113-.04-.033-.17-.672-.3-1.425s-.283-1.595-.348-1.878l-.113-.502.292.048c.162.024.769.154 1.344.275zm-2.041 1.417c.267 1.457.324 1.902.243 1.902-.033 0-.17-.632-.3-1.4-.307-1.862-.316-1.902-.227-1.757.04.065.17.632.283 1.255zm-12.628-.454-.048.567.275.04c.154.024.453.065.68.097.478.057.712.17 1.368.656.623.461.413.405-.3-.081-.583-.405-.979-.518-2.145-.623-.389-.033-.575-.065-.413-.073l.292-.008.057-.502c.065-.534.097-.632.211-.632.04 0 .048.251.024.559zm14.426-.38c-.057.243.421 2.582.551 2.72.113.113 1.619.332 1.862.275.186-.048.178-.324-.065-1.554-.219-1.085-.235-1.238-.13-1.052.13.235.421 1.918.397 2.315l-.024.397-.405-.008c-.761-.008-1.498-.121-1.659-.259-.13-.105-.219-.413-.405-1.352-.259-1.279-.292-1.659-.162-1.659.048 0 .065.081.04.178zm-16.02.04c-.016.081-.186.623-.364 1.214-.3.963-.437 1.246-.542 1.141-.057-.065.793-2.493.874-2.493.04 0 .057.065.033.138zm-.494.105c.04.073-.105.623-.534 1.991-.073.243-.097.259-.647.307-.348.04-.542.089-.51.138.024.048-.17-.081-.437-.292l-.486-.38.194-.696c.113-.389.219-.801.251-.931l.048-.219h1.036c.615 0 1.052.033 1.085.081zm-4.088.041c0 .024-.146.316-.324.639-.178.332-.437.882-.567 1.231l-.235.639-.008-.575c0-.607-.081-.761-.38-.761-.211 0-.235-.121-.105-.583.048-.17.17-.348.267-.405.235-.13 1.352-.283 1.352-.186zm1.295.057c0 .057-.089.397-.186.753l-.186.647-.348.024c-.34.024-.348.04-.559.502-.146.316-.267.478-.356.486-.081 0-.146-.016-.146-.04 0-.162 1.06-1.999 1.319-2.291.178-.194.461-.243.461-.081zm-.923.186a16.798 16.798 0 0 0-.915 1.619c-.154.307-.259.453-.227.324.073-.348.632-1.481.906-1.838.259-.34.437-.421.235-.105zm26.762.291c.267.138.712 1.344 1.069 2.89.105.461.105.51-.008.469a1.315 1.315 0 0 0-.356-.048c-.283 0-.307-.057-.551-1.093a13.709 13.709 0 0 0-.478-1.554l-.316-.826.251.048c.138.024.316.081.389.113zm-10.394.769.024.647h-.324c-.178-.008-.34-.033-.372-.057-.024-.033-.081-.283-.121-.567-.089-.632-.024-.737.437-.704l.332.024.024.656zm-10.669.194c0 .526-.016.567-.17.567s-.17-.033-.121-.307c.024-.162.048-.421.048-.567 0-.178.04-.259.121-.259.097 0 .121.113.121.567zm3.181.324c.162.113.3.227.3.259 0 .04-.178-.065-.405-.227-.219-.162-.405-.307-.405-.324 0-.04.048-.016.51.292zm-8.402.17c-.048.283-.04.307.121.275a.74.74 0 0 0 .292-.13c.089-.073.146-.073.211-.008.13.13-.162.227-.891.292l-.591.048.178-.34c.097-.194.17-.356.162-.372-.057-.097.04-.138.283-.113.283.033.283.04.235.348zm-2.113.308c-.033.251-.097.413-.154.413-.065 0-.129.048-.146.097-.024.057-.048-.121-.048-.397-.008-.453.008-.502.178-.526.097-.016.186-.024.202-.016s0 .202-.033.429zm2.963-.227.283.251-.267-.154c-.283-.154-.494-.348-.372-.348.04 0 .202.113.356.251zm13.891.13c-.089.364-.089.372-.113.113-.024-.202.081-.494.178-.494.008 0-.016.17-.065.38zm4.242.923c0 .154-.04.235-.121.235-.065 0-.121-.048-.121-.105 0-.048-.024-.178-.048-.275-.04-.146-.024-.17.121-.13.121.033.17.105.17.275zm2.388-.009c.85.097 1.595.202 1.659.235.154.081.211.413.073.413-.146 0-3.262-.316-3.691-.372-.324-.04-.348-.057-.348-.292v-.251l.389.048c.211.033 1.077.13 1.918.219zm-23.597.138c0 .081-.024.227-.048.324-.073.275-.356.097-.356-.219 0-.202.033-.243.202-.243.138 0 .202.04.202.138zm19.452.073 1.433.146v2.177c0 1.417-.033 2.226-.089 2.339-.081.154-.146.162-1.554.138l-1.465-.033-.3.397c-.219.283-.356.599-.47 1.052-.364 1.417-.51 1.878-.648 2.072-.138.186-.194.202-.971.227-.737.016-.818.008-.826-.121-.033-.534.024-3.683.105-5.626l.097-2.331.364-.121c.202-.065.712-.194 1.133-.283s.785-.186.81-.211c.057-.057.389-.033 2.38.178zm1.765.348c.008.113.016.113.048-.016.016-.073.065-.138.089-.138.397 0 4.112.421 4.153.461.162.162.251 1.457.275 3.748l.024 2.469 2.938-.065-.024.275c-.016.194-.057.267-.146.243-.356-.097-.696-.105-1.999-.048-1.603.065-1.651.081-1.821.72l-.097.356-.526.048c-.292.024-1.069.065-1.724.097l-1.198.057-.016-.397-.008-.397-.048.405c-.033.259-.081.397-.146.389-.057-.016-.105.016-.105.057 0 .048.04.081.081.081.048 0 .089.081.089.178.016.178.016.178.048.016.033-.186.008-.186 2.558-.324.858-.048.947-.04.899.081-.024.073-.016.13.033.13.073 0 .105-.065.38-.826.073-.211.194-.397.267-.421s.81-.081 1.627-.13c1.368-.073 1.506-.065 1.651.057.121.113.138.211.097.502-.073.47-.283.988-.372.931-.04-.024-.073-.275-.073-.551 0-.34-.04-.542-.113-.607-.105-.089-1.441-.073-2.534.04l-.429.04-.162.559c-.267.891-.219.866-1.862.963-.777.048-1.595.113-1.805.138-.283.024-.38.016-.34-.057.04-.065.016-.065-.089-.008-.146.073-.154.033-.162-.745-.016-1.231-.413-2.704-.858-3.181-.162-.17-.243-.186-1.004-.186-.818 0-.826 0-1.036.243-.194.235-.461 1.004-.971 2.785-.34 1.174-.397 1.214-1.692 1.166l-.72-.024-.113-.324c-.202-.591-.146-.583-2.882-.639a768.119 768.119 0 0 1-10.305-.275l-1.133-.057-.024-.729c-.016-.639-.008-.704.089-.526.057.113.235.275.397.364.283.146.307.154.575.024.437-.211.728-.648.769-1.166.089-1.117-.777-1.943-1.473-1.4-.202.162-.3.38-.113.267.057-.033.065-.024.033.033-.033.048-.113.065-.178.04-.097-.033-.113-.113-.081-.292.024-.13.048-.47.048-.753v-.518h.51c.672 0 .826-.138.769-.72l-.04-.405.332.251c.769.599 1.918 1.627 2.25 2.024.534.623.785 1.06 1.158 1.967.194.486.372.81.445.81.065 0 .235-.3.413-.712.542-1.271 1.206-2.032 2.542-2.922.559-.372 2.809-1.668 2.89-1.668.016 0 .033.202.033.445-.008.639.097.72 1.028.753.826.024 1.069-.057 1.263-.405.097-.17.105-.267.024-.542-.057-.178-.17-.364-.251-.413-.081-.04-.478-.089-.874-.097l-.729-.024.453-.259c.664-.38 2.275-1.101 2.331-1.044.033.033.008 1.028-.04 2.218a107.09 107.09 0 0 0-.105 5.456l.008.47h.874c.81 0 .891-.016 1.044-.186.194-.202.421-.866.672-1.959.186-.81.389-1.222.672-1.336.097-.04.13-.073.065-.073-.089-.008-.089-.033-.008-.13s.364-.121 1.587-.121c1.384 0 1.49-.008 1.571-.154.048-.097.081-1.004.081-2.388 0-1.951.016-2.226.121-2.186.065.033.13.113.13.186zm6.532.47c1.077.121 1.959.251 1.959.283 0 .097-.121.089-2.072-.138a71.923 71.923 0 0 0-1.87-.202c-.113 0-.154-.162-.04-.162.033 0 .939.097 2.024.219zm-.283.396c.874.097 1.271.17 1.271.235 0 .057.024.211.048.34l.048.235-.599-.024c-.51-.016-.542-.008-.267.057.178.04.445.073.591.073.194.008.259.04.259.162 0 .081.024.316.048.526l.057.372-.599.008c-.534.008-.567.016-.316.089.154.04.413.065.583.048.251-.024.307 0 .307.113 0 .13-.081.146-.575.146-.356 0-.551.033-.518.081.024.04.283.081.575.081.461 0 .518.016.518.162s-.057.162-.526.162c-.3 0-.526.033-.526.081s.235.081.542.081h.534l-.048 1.222c-.024.672-.057 1.231-.073 1.247-.016.008-.664.04-1.449.057l-1.425.048-.048-2.688c-.033-1.473-.073-2.776-.105-2.898-.048-.211-.04-.227.178-.186.13.016.81.097 1.514.17zm2.137.737c.121 1.028.073 4.436-.081 5.286-.186.996-.202 1.052-.364 1.052a.662.662 0 0 0-.332.138c-.186.13-.194.13-.146-.065.024-.105.113-.761.186-1.449.105-.979.121-1.692.089-3.238-.024-1.093-.065-2.048-.097-2.129-.048-.121-.008-.138.307-.138h.364l.073.542zm-29.134-.186c.178.307.162.372-.121.372-.121 0-.186-.048-.186-.146 0-.154.089-.502.121-.502.016 0 .097.121.186.275zm11.916.267c-.372.016-.729.073-.785.121-.105.089-.154-.024-.048-.121.024-.033.38-.048.785-.04l.737.016-.688.024zm.972.178c.04.089.073.3.073.47-.016.292-.016.292-.065-.081-.033-.219-.113-.429-.178-.47-.073-.04-.081-.073-.016-.073.057 0 .138.073.186.154zm-.219.057c-.057.024-.105.081-.105.121 0 .048.033.065.073.04.081-.048.17.13.17.348 0 .105-.057.13-.267.105-.235-.024-.267-.057-.235-.219.016-.097-.008-.211-.057-.235-.17-.105-.089-.178.219-.186.162-.008.251 0 .202.024zm-12.11.234c.008.13.008.13-.024.016-.033-.105-.13-.138-.397-.138-.3 0-.356.024-.389.178s-.033.154-.048-.04c-.008-.227 0-.227.413-.202.356.024.429.048.445.186zm11.665.114c.024.138-.016.17-.202.178-.121 0-.348.008-.494.016-.219.016-.259-.008-.259-.17s.04-.186.227-.162c.17.016.211.065.194.186-.016.13-.008.138.057.04a.53.53 0 0 0 .089-.259c0-.211.356-.057.389.17zm-1.069.429c.04.065.008.04-.065-.04a.682.682 0 0 1-.138-.413c.008-.251.008-.251.065.048.033.162.097.348.138.405zm-10.637.178c.048-.033.073-.024.04.016-.024.04-.202.065-.397.048-.348-.033-.356-.04-.324-.267.033-.194.073-.235.267-.235.13 0 .243-.048.251-.105.008-.048.024.057.04.251.024.219.065.324.121.292zm.122-.219c-.024.081-.04.033-.04-.097 0-.138.016-.194.04-.146a.62.62 0 0 1 0 .243zm-.972.203c-.016.105-.033.04-.033-.138-.008-.178.008-.259.033-.186.016.081.016.227 0 .324zm.575.202a1.098 1.098 0 0 1-.324 0c-.105-.016-.04-.033.138-.033.178-.008.259.008.186.033zm.154 1.368c-.024.024-.097.033-.154.008-.065-.024-.04-.048.048-.048.089-.008.138.016.105.04zm.51.364c.121.227.04.186-.121-.057-.073-.121-.097-.186-.048-.162a.63.63 0 0 1 .17.219zm-.413-.056c.211.113.243.202.307.745.048.421-.146.891-.413 1.012-.162.081-.243.073-.429-.04l-.227-.138.227.202c.121.113.194.211.154.211-.154 0-.413-.332-.364-.461.033-.073.016-.113-.024-.089-.04.033-.081-.065-.089-.202l-.016-.259.113.259c.243.559.753.494.939-.13.113-.389-.016-.842-.283-1.028-.259-.162-.445-.065-.632.324-.129.283-.146.3-.105.089.048-.251.38-.607.551-.607.057.008.186.057.292.113zm-.048.299c.13.211.008.397-.267.397-.219 0-.243-.024-.243-.235 0-.332.332-.437.51-.162zm.631.98c-.089.292-.494.712-.68.712-.057 0 .016-.073.154-.154.3-.178.51-.607.526-1.036.016-.267.024-.275.048-.065.024.13 0 .372-.048.542zm16.935-.146c.397.162.907.793 1.19 1.473.267.656.551 2.113.445 2.348-.04.105-.097-.073-.17-.567-.138-.915-.502-1.724-.971-2.153-.372-.348-.737-.453-1.247-.372-.348.057-.372.024-.235-.332.186-.502.47-.615.988-.397zm.137 1.627c.745.389 1.133 1.789.891 3.254-.113.737-.267 1.174-.542 1.546-.445.599-1.028.639-1.562.089-1.069-1.101-.85-4.12.348-4.857.307-.186.551-.194.866-.033zm9.196.34c-.202 1.182-.186 1.141-.559 1.19-.186.024-.834.113-1.433.194-.599.089-1.109.146-1.125.13-.04-.033.413-1.506.502-1.627.081-.113.445-.154 1.708-.17l.955-.016-.048.3zm-23.929.348c1.449.04 4.177.097 6.071.13 1.894.024 3.562.081 3.7.13.259.073.51.332.51.518 0 .048-.121.113-.259.138-.405.065-7.375-.113-7.472-.194-.048-.033-1.522-.081-3.278-.105-3.343-.048-4.29-.097-4.29-.227 0-.113.17-.421.275-.486.048-.033.542-.04 1.101-.024.559.024 2.194.081 3.643.121zm25.937-.032c.089.033.13.154.13.397 0 .194-.033.372-.065.397a3.17 3.17 0 0 1-.559.089l-.494.057.04-.389c.024-.219.081-.445.13-.502.081-.097.599-.138.818-.048zm-27.207.89.866.048v.866l-.421-.04c-.235-.016-1.19-.073-2.121-.121s-1.757-.13-1.838-.178c-.146-.089-.235-.3-.235-.575 0-.146.065-.146 1.441-.097.785.024 1.821.073 2.307.097zm3.521-.008c.065.024.097.202.097.526v.486h-.551c-.307 0-.891-.024-1.295-.048l-.745-.057v-.996l1.198.033c.656.016 1.238.04 1.295.057zm18.392.194c0 .048-.04.105-.089.138-.089.048-4.055.364-4.096.324-.016-.008.024-.081.081-.154.081-.105.38-.146 1.595-.219.826-.048 1.538-.105 1.578-.121.178-.065.931-.033.931.033zm-13.138.187c.186.154.081.421-.219.567-.243.121-.518.146-1.862.146-.866 0-1.878-.024-2.242-.057l-.672-.048v-.81l2.445.057c1.619.033 2.477.081 2.55.146zm5.067.072c.097.146.033.445-.138.68-.105.146-.227.162-1.319.186-1.109.016-1.182.008-.979-.105.259-.146.388-.356.388-.639 0-.202.016-.202.712-.235 1.077-.04 1.247-.024 1.336.113zm10.54 1.417c-.065.235-.211.534-.316.656-.17.194-.211.211-.405.121-.389-.17-.648-.753-.729-1.635-.048-.445-.048-.445.073.105.186.899.599 1.441.939 1.231.186-.121.405-.785.461-1.433l.057-.672.024.591c.016.372-.024.761-.105 1.036zm-1.061-1.311c-.073.186.105.227.332.081.202-.13.202-.13.202.121 0 .348-.202.818-.356.818-.065 0-.162-.073-.211-.154-.089-.178-.113-.842-.024-.923.081-.089.105-.065.057.057zm.915.429c-.024.081-.04.016-.04-.138s.016-.219.04-.146a.84.84 0 0 1 0 .283zm-20.804.234c1.101.04 1.7.089 1.668.138-.048.081-3.473.016-4.25-.081-.656-.081-.453-.219.243-.162.34.033 1.392.073 2.339.105zm17.898.413c.057.292.186.72.3.939l.194.405-1.271-.048a62.507 62.507 0 0 0-2.437-.057c-1.069 0-1.158-.008-1.101-.146.04-.073.121-.397.186-.704.073-.316.138-.583.154-.599.04-.057 2.728-.307 3.343-.324l.526-.008.105.542zm2.817-.113c-.057.283-.316.623-.478.623-.057 0-.033-.04.048-.089.178-.105.38-.494.38-.729 0-.097.024-.162.048-.13.033.024.033.17 0 .324zm-12.806-.114c.211.04.259.113.372.494.073.251.178.526.227.607.081.154.048.17-.453.251-.34.048-.534.121-.518.178.008.057-.065.097-.162.097-.219 0-3.546.283-4.679.397-.421.048-1.077.105-1.449.138l-.688.048.259-.324c.307-.38.632-1.069.704-1.473.033-.186.121-.324.227-.38.194-.089 5.739-.13 6.16-.033zm-8.646.915c.089.073.259.178.388.227.307.113.745-.097.996-.478.243-.356.251-.097.016.292-.17.275-.518.51-.761.51-.267 0-.623-.267-.858-.632-.13-.202-.235-.413-.235-.453 0-.048.065.016.154.154.081.13.219.307.3.38z"/>
      <path d="M25.317 8.043c.016.194.016.202.048.04.016-.097.04-.178.057-.178.008 0 .34.105.737.243.397.13.729.227.745.211.033-.033-1.417-.534-1.538-.534-.033 0-.048.097-.048.219zM24.921 8.31c0 .113.016.154.04.097a.43.43 0 0 0 0-.202c-.024-.048-.04-.008-.04.105zM25.398 8.439c0 .089.024.113.048.048.024-.057.016-.13-.008-.154-.024-.033-.048.016-.04.105zM27.09 8.456c.065.04.211.105.324.13.138.04.162.033.081-.016a1.275 1.275 0 0 0-.324-.13c-.138-.04-.162-.033-.081.016zM25.002 8.715c0 .113.016.154.04.097a.43.43 0 0 0 0-.202c-.024-.048-.04-.008-.04.105zM27.746 8.771c.057.097.121.162.146.138.024-.016-.024-.097-.105-.178-.138-.13-.146-.13-.04.04zM25.56 8.957a.87.87 0 0 0 .073.283c.04.105.073.113.073.04a.87.87 0 0 0-.073-.283c-.04-.105-.073-.113-.073-.04zM25.082 9.119c0 .113.016.154.04.097a.43.43 0 0 0 0-.202c-.024-.048-.04-.008-.04.105zM27.908 9.079c0 .04.065.3.154.567s.138.356.105.202c-.048-.307-.251-.899-.259-.769zM25.164 9.629c-.008.178-.065.324-.13.348s-.542-.048-1.069-.17c-.518-.113-.955-.194-.979-.178-.033.033.186.089 1.538.389.575.121.737.024.68-.421l-.033-.275-.008.307zM22.695 9.532c.057.057.121.081.146.057s-.016-.073-.097-.097c-.113-.048-.121-.04-.048.04zM25.811 9.767c.016.065.267.202.559.3 1.085.364 1.935.615 1.975.583.016-.024 0-.146-.033-.283-.073-.235-.073-.235-.081-.024l-.008.211-1.069-.324c-.591-.17-1.15-.38-1.231-.453-.13-.105-.146-.105-.113-.008zM13.798 7.071c.057.024.13.016.154-.008.033-.024-.016-.048-.105-.04-.089 0-.113.024-.048.048zM14.284 7.152a.43.43 0 0 0 .202 0c.048-.024.008-.04-.105-.04s-.154.016-.097.04zM11.653 9.014c.575.016 1.481.016 2.024 0 .542-.008.081-.024-1.036-.024-1.109 0-1.554.016-.988.024zM6.691 17.279c-.154.081-.405.324-.542.534-.235.34-.267.461-.267.891.008 1.498 1.247 2.113 2.161 1.069.34-.38.542-1.02.478-1.49-.121-.899-1.052-1.409-1.83-1.004zm1.303.429c.13.154.219.324.194.38s0 .081.04.057c.048-.033.081.089.081.307 0 .478-.413 1.311-.729 1.473-.324.17-.753.154-.915-.024-.202-.219-.38-.801-.372-1.222v-.372l.146.445.138.445.146-.405c.211-.575.405-.801.599-.696.105.057.178.057.243-.008.17-.17.186-.008.033.38-.113.292-.162.348-.202.251-.089-.227-.219-.113-.429.356-.219.51-.267 1.004-.081.81.057-.065.178-.324.259-.567l.146-.445.057.38c.033.202.089.437.138.51.065.121.097.105.292-.138.113-.154.211-.316.211-.356 0-.033-.065.016-.138.121l-.13.194-.073-.178a.51.51 0 0 1 .048-.397c.219-.437.38-1.004.3-1.101-.048-.057-.275-.081-.607-.065l-.534.033-.138.397-.146.397-.13-.38c-.146-.437-.121-.51.292-.769.178-.113.348-.146.639-.121.324.033.429.081.623.307zm-1.765.437c-.024.073-.065.113-.081.089-.024-.024-.016-.073.016-.121.073-.13.121-.105.065.033zm-.129.826c-.016.13-.033.024-.033-.219s.016-.348.033-.227c.016.13.016.324 0 .445z"/>
      <path d="M8.132 18.59a4.943 4.943 0 0 1-.097.445c-.033.089.008.04.073-.113.073-.146.121-.348.105-.445-.024-.121-.04-.089-.081.113zM26.378 12.924c0 .113.016.154.04.097a.43.43 0 0 0 0-.202c-.024-.048-.04-.008-.04.105zM26.459 13.329c0 .113.016.154.04.097a.43.43 0 0 0 0-.202c-.024-.048-.04-.008-.04.105zM21.326 17.392c-.081.081-.146.194-.146.259 0 .162.397.615.526.615.211 0 .51-.178.615-.372.089-.17.081-.219-.081-.389-.243-.259-.712-.316-.915-.113zm.664.227c.162.057.13.065-.178.073-.219.008-.389-.033-.389-.073 0-.097.275-.097.567 0zm-.081.397c0 .121-.13.178-.275.121-.202-.073-.154-.194.073-.194.113 0 .202.033.202.073zM16.947 22.937c-.073.065-.073.453-.008.623.048.13.405.178.567.065.146-.097.211-.405.113-.583-.057-.113-.17-.162-.356-.162-.146 0-.292.024-.316.057zm.551.106c.033.048-.065.081-.243.081s-.275-.033-.243-.081c.024-.048.138-.081.243-.081s.219.033.243.081zM23.18 17.603l-.202.219.219.259c.251.3.405.332.696.138.364-.235.202-.672-.292-.785-.162-.04-.259 0-.421.17zm.615.154a1.713 1.713 0 0 1-.405 0c-.13-.016-.04-.033.178-.033.227 0 .324.016.227.033zm0 .388c.033.138-.324.138-.38 0-.04-.105 0-.13.154-.105.113.016.219.057.227.105zM12.625 19.796c-.599.275-.931 1.036-.753 1.7.251.939 1.336 1.392 2.097.866 1.133-.785.737-2.55-.607-2.688a1.337 1.337 0 0 0-.737.121zm.938.235c.745.38.753 1.611.016 1.999-.461.235-.858.105-1.109-.38-.089-.178-.105-.267-.04-.332s.089-.048.089.057c0 .178.502.696.672.696s.623-.389.623-.534c0-.073.033-.105.073-.081.186.121.227-.575.057-.907-.17-.324-.38-.486-.745-.575-.227-.048-.259-.073-.113-.081.113-.008.324.057.478.138zm-.841.024a1.45 1.45 0 0 0-.348.307c-.162.178-.178.178-.105.033.097-.194.397-.429.534-.429.04 0 .008.04-.081.089zm1.627.535c.154.356.138.648-.04 1.044-.154.34-.647.729-.842.656-.057-.024-.04-.048.04-.048.243-.016.704-.486.793-.818.105-.397 0-.915-.259-1.198l-.186-.219.194.162c.105.089.243.275.3.421zm-1.304-.356c-.089.057-.178.17-.186.259-.04.202-.178.364-.178.194 0-.065.024-.154.065-.202.033-.04 0-.016-.065.057s-.162.202-.211.283c-.081.138-.089.121-.057-.073.048-.243.445-.623.656-.623.113.008.113.024-.024.105zm.583.097c.194.138.283.478.162.599-.13.13-.47.105-.639-.048-.186-.17-.186-.478 0-.583.186-.113.275-.105.478.033zm.324.866c-.024.065-.048.04-.048-.048-.008-.089.016-.138.04-.105.024.024.033.097.008.154zm-1.376.842c.194.186.202.202.04.121-.202-.113-.502-.551-.502-.737.008-.065.057 0 .121.146.065.138.219.356.34.47zM22.913 21.221c0 .891.016 1.263.024.834.016-.429.016-1.158 0-1.619-.008-.461-.024-.105-.024.785zM15.474 22.557c-.097.154.048.559.211.607.089.033.186.033.211.008.033-.024-.008-.048-.081-.048-.194 0-.324-.283-.219-.486.089-.17-.024-.235-.121-.081zM3.105 23.423c-.033.048.04.105.17.13.356.073 8.832.251 8.896.186.033-.033.016-.089-.04-.121s-1.603-.089-3.441-.121c-1.838-.024-3.829-.073-4.436-.105-.72-.033-1.117-.016-1.15.033zM29.138 18.307c0 .307.016.429.033.259a3.353 3.353 0 0 0 0-.567c-.016-.138-.033-.008-.033.307zM29.438 17.862c0 .048.219.081.502.081.599 0 .591-.04-.033-.113-.3-.033-.47-.016-.47.033zM29.438 18.258c0 .081.891.17 1.012.097.048-.024-.024-.073-.162-.097-.372-.081-.85-.081-.85 0zM19.594 23.52c-.3.13-.664.656-.842 1.231-.154.478-.178.688-.146 1.481.033.785.065.979.235 1.311.518 1.004 1.368 1.004 1.862-.008.307-.632.429-1.303.372-2.105-.057-.834-.186-1.198-.534-1.587-.307-.332-.648-.445-.947-.324zm.421 1.02c.696.704.526 2.331-.283 2.647-.162.057-.235.033-.429-.154-.121-.113-.227-.243-.227-.283s.113.048.251.194l.251.267-.162-.243c-.389-.599-.445-1.328-.154-1.902.154-.316.211-.364.437-.364.202 0 .235-.024.17-.105-.17-.202-.494-.073-.688.267-.186.332-.259.34-.097.016.154-.292.413-.542.575-.542.081 0 .243.089.356.202zm-1.044.947c-.024.057-.04.016-.04-.097s.016-.154.04-.105a.43.43 0 0 1 0 .202zm1.7.688c-.016.13-.033.024-.033-.219s.016-.348.033-.227c.016.13.016.324 0 .445zm-1.7.081c-.024.081-.04.033-.04-.097 0-.138.016-.194.04-.146a.62.62 0 0 1 0 .243zm1.562.567c-.089.138-.089.138-.048 0 .024-.081.048-.194.057-.243 0-.073.016-.073.04 0 .024.057 0 .162-.048.243zm-.154.413c-.162.3-.575.583-.85.583-.186 0-.324-.073-.502-.259l-.235-.259.267.219c.154.121.372.219.502.219.259 0 .688-.324.769-.575.033-.089.073-.146.097-.13.016.024 0 .113-.048.202z"/>
    </symbol>
  </defs>
</svg>